# xmcd
#
# Track frame offsets:
#	150
#	66640
#	100334
#	123712
#	130441
#	152060
#	180736
#
# Disc length: 2717 seconds
#
# Revision: 1
# Processed by: cddbd v1.5.2PL0 Copyright (c) Steve Scherf et al.
# Submitted via: audiograbber 1.83.01
#
DISCID=6a0a9b07
DTITLE=Grateful Dead - 73-03-21 Community War Memorial, Rochester NY
DYEAR=1900
DGENRE=
TTITLE0=Playing In The Band
TTITLE1=China Cat Sunflower
TTITLE2=I Know You Rider
TTITLE3=Tuning
TTITLE4=Jack Straw
TTITLE5=Wave That Flag
TTITLE6=Greatest Story Ever Told
EXTD=
EXTT0=
EXTT1=
EXTT2=
EXTT3=
EXTT4=
EXTT5=
EXTT6=
PLAYORDER=
